<svg height="511.99931pt" viewBox="1 1 511.99931 511.99931" width="511.99931pt" xmlns="http://www.w3.org/2000/svg"><path d="m256 0c-141.386719 0-256 114.613281-256 256 0 141.382812 114.613281 256 256 256 141.382812 0 256-114.617188 256-256-.167969-141.316406-114.683594-255.832031-256-256zm0 480c-123.710938 0-224-100.289062-224-224s100.289062-224 224-224 224 100.289062 224 224c-.132812 123.65625-100.34375 223.867188-224 224zm0 0"/><path d="m203.3125 116.6875-22.625 22.625 116.6875 116.6875-116.6875 116.6875 22.625 22.625 128-128c6.246094-6.25 6.246094-16.375 0-22.625zm0 0"/></svg>