<?xml version="1.0" ?><svg id="Capa_1" style="enable-background:new 0 0 511.998 511.998;" version="1.1" viewBox="0 0 511.998 511.998" xml:space="preserve" xmlns="http://www.w3.org/2000/svg" xmlns:xlink="http://www.w3.org/1999/xlink"><g><g><g><path d="M501.998,131.995H300.141L266,97.854V76.928l73.512-27.565C343.415,47.899,346,44.168,346,40     c0-4.168-2.586-7.899-6.488-9.363L259.51,0.638c-3.07-1.152-6.512-0.726-9.207,1.144C247.607,3.649,246,6.721,246,10.001v59.997     v27.856l-34.143,34.141H10c-5.523,0-10,4.477-10,10v80v280.003c0,5.522,4.477,10,10,10h186h119.997h186.001     c5.523,0,10-4.478,10-10V221.995v-80C511.998,136.472,507.521,131.995,501.998,131.995z M266,24.43l41.521,15.569L266,55.569     V24.43z M491.998,151.995v20h-17.017c-5.522,0-10,4.478-10,10c0,5.523,4.478,10,10,10h17.017v20H380.141l-60-60H491.998z      M20,191.995h17.016c5.523,0,10-4.477,10-10c0-5.522-4.477-10-10-10H20v-20h171.857l-60.001,60H20V191.995z M246,491.998h-40v-90     c0-5.514,4.486-9.999,10-9.999h30V491.998z M305.997,491.998H266v-99.999h30c5.512,0,9.997,4.485,9.997,9.999V491.998z      M491.998,491.998L491.998,491.998H325.997V472h17.017c5.522,0,10-4.478,10-10c0-5.522-4.478-10-10-10h-17.017v-50.002     c0-16.542-13.456-29.999-29.997-29.999h-80c-16.543,0-30,13.457-30,29.999V452h-17.016c-5.523,0-10,4.478-10,10     c0,5.522,4.477,10,10,10H186v19.998H20V231.995h115.998c2.652,0,5.196-1.054,7.071-2.929L256,116.139l32.924,32.925     c0.002,0.002,0.004,0.004,0.006,0.006l79.998,79.997c1.875,1.875,4.419,2.929,7.07,2.929h116V491.998z"/><path d="M256,177.308c-22.056,0-39.999,17.944-39.999,40c0,22.056,17.943,39.999,39.999,39.999c22.057,0,40-17.943,40-39.999     C296,195.252,278.057,177.308,256,177.308z M256,237.307c-11.027,0-19.999-8.972-19.999-19.999c0-11.028,8.972-20,19.999-20     c11.028,0,20,8.972,20,20C276,228.335,267.028,237.307,256,237.307z"/><path d="M90,271.997H49.998c-5.523,0-10,4.478-10,10v40c0,5.522,4.477,10,10,10H90c5.523,0,10-4.478,10-10v-40     C100,276.475,95.523,271.997,90,271.997z M80,311.997H59.998v-20H80V311.997z"/><path d="M196,271.997h-40.002c-5.523,0-10,4.478-10,10v40c0,5.522,4.477,10,10,10H196c5.523,0,10-4.478,10-10v-40     C206,276.475,201.523,271.997,196,271.997z M186,311.997h-20.002v-20H186V311.997z"/><path d="M90,381.999H49.998c-5.523,0-10,4.478-10,10v40c0,5.523,4.477,10,10,10H90c5.523,0,10-4.477,10-10v-40     C100,386.477,95.523,381.999,90,381.999z M80,421.999H59.998v-20H80V421.999z"/><path d="M421.996,331.997h40.003c5.522,0,10-4.478,10-10v-40c0-5.522-4.478-10-10-10h-40.003c-5.522,0-10,4.478-10,10v40     C411.996,327.519,416.474,331.997,421.996,331.997z M431.996,291.997h20.003v20h-20.003V291.997z"/><path d="M366,321.997v-40c0-5.522-4.478-10-10-10h-40.003c-5.522,0-10,4.478-10,10v40c0,5.522,4.478,10,10,10H356     C361.522,331.997,366,327.519,366,321.997z M346,311.997h-20.003v-20H346V311.997z"/><path d="M421.996,441.999h40.003c5.522,0,10-4.477,10-10v-40c0-5.522-4.478-10-10-10h-40.003c-5.522,0-10,4.478-10,10v40     C411.996,437.521,416.474,441.999,421.996,441.999z M431.996,401.999h20.003v20h-20.003V401.999z"/><path d="M371.744,452c-5.522,0-10,4.478-10,10c0,5.522,4.478,10,10,10h0.236c5.523,0,10-4.478,10-10c0-5.522-4.477-10-10-10     H371.744z"/><path d="M140.252,452h-0.235c-5.523,0-10,4.478-10,10c0,5.522,4.477,10,10,10h0.235c5.523,0,10-4.478,10-10     C150.252,456.478,145.775,452,140.252,452z"/><path d="M65.982,171.995h-0.237c-5.523,0-10,4.478-10,10c0,5.523,4.478,10,10,10h0.237c5.523,0,10-4.477,10-10     C75.982,176.473,71.505,171.995,65.982,171.995z"/><path d="M446.016,191.995h0.236c5.523,0,10-4.477,10-10c0-5.522-4.477-10-10-10h-0.236c-5.522,0-10,4.478-10,10     C436.016,187.518,440.493,191.995,446.016,191.995z"/></g></g></g><g/><g/><g/><g/><g/><g/><g/><g/><g/><g/><g/><g/><g/><g/><g/></svg>